<svg xmlns="http://www.w3.org/2000/svg" xmlns:xlink="http://www.w3.org/1999/xlink" width="16" height="16" viewBox="0 0 16 16"><defs><clipPath id="b"><rect width="16" height="16"/></clipPath></defs><g id="a" clip-path="url(#b)"><path d="M6,7.53H0A7.586,7.586,0,0,1,.31,5.381l3.846.8a4.032,4.032,0,0,1,.382-.895L1.18,3.48A7.625,7.625,0,0,1,3.451,1.2L5.692,4.026a4.016,4.016,0,0,1,1-.512L5.988.157A7.559,7.559,0,0,1,7.529,0h.942A7.6,7.6,0,0,1,9.706.1L9.014,3.423a3.986,3.986,0,0,1,1.174.522L12.144.955a7.612,7.612,0,0,1,2.471,2.221L11.442,5.254a3.955,3.955,0,0,1,.383.867l3.846-.8A7.5,7.5,0,0,1,16,7.528H10A1.816,1.816,0,0,0,9.414,6.2,2.052,2.052,0,0,0,8,5.647,1.946,1.946,0,0,0,6,7.529Z" transform="matrix(0.899, -0.438, 0.438, 0.899, -2.698, 4.317)" fill="#f6a1a1"/><path d="M6,7.53H0A7.586,7.586,0,0,1,.31,5.381l3.846.8a4.032,4.032,0,0,1,.382-.895L1.18,3.48A7.625,7.625,0,0,1,3.451,1.2L5.692,4.026a4.016,4.016,0,0,1,1-.512L5.988.157A7.559,7.559,0,0,1,7.529,0h.942A7.6,7.6,0,0,1,9.706.1L9.014,3.423a3.986,3.986,0,0,1,1.174.522L12.144.955a7.612,7.612,0,0,1,2.471,2.221L11.442,5.254a3.955,3.955,0,0,1,.383.867l3.846-.8A7.5,7.5,0,0,1,16,7.528H10A1.816,1.816,0,0,0,9.414,6.2,2.052,2.052,0,0,0,8,5.647,1.946,1.946,0,0,0,6,7.529Z" transform="matrix(-0.899, 0.438, -0.438, -0.899, 18.697, 11.683)" fill="#fff"/><circle cx="1.5" cy="1.5" r="1.5" transform="translate(8 9)" fill="#f6a1a1"/></g></svg>