<svg xmlns="http://www.w3.org/2000/svg" xmlns:xlink="http://www.w3.org/1999/xlink" width="16" height="16" viewBox="0 0 16 16"><defs><clipPath id="b"><rect width="16" height="16"/></clipPath></defs><g id="a" clip-path="url(#b)"><path d="M-1107.185,16.094a4.813,4.813,0,0,1-.52-.04,6.777,6.777,0,0,0-.786-.054h-3.137c-.183,0-.358.007-.527.015s-.313.013-.464.013a2.1,2.1,0,0,1-1.66-.654A4.56,4.56,0,0,1-1115.06,13a10.238,10.238,0,0,0,.423-2.875,17.646,17.646,0,0,0-.267-2.73,3.434,3.434,0,0,1-2.885-2.027,3.032,3.032,0,0,1,2.092-3.988,3.883,3.883,0,0,1,1.2-.188,3.84,3.84,0,0,1,1.8.443A2.988,2.988,0,0,1-1110.06,0a3,3,0,0,1,2.589,1.539,3.829,3.829,0,0,1,1.876-.485,3.862,3.862,0,0,1,1.31.227,3.009,3.009,0,0,1,1.933,4.05,3.473,3.473,0,0,1-2.708,1.91V13a3.5,3.5,0,0,1-1,2.624A1.574,1.574,0,0,1-1107.185,16.094Zm-5.872-10.317h0a4.875,4.875,0,0,0-1,3.166c0,.236,0,.52-.008.822-.022,1.623-.056,4.075.383,4.678a2.665,2.665,0,0,0,2.382.979c.226,0,.449-.009.665-.018s.4-.016.579-.016l.336,0,.352,0c1.156,0,2.326-.073,2.811-.948.627-1.1.626-4.1.625-5.387V8.944a4.787,4.787,0,0,0-.985-3.08,2.721,2.721,0,0,0,1.361.357,2.376,2.376,0,0,0,2.5-2.222,2.375,2.375,0,0,0-2.5-2.221,2.655,2.655,0,0,0-1.751.635,3.149,3.149,0,0,0-2.749-1.969,3.154,3.154,0,0,0-2.751,1.969,2.648,2.648,0,0,0-1.75-.635,2.375,2.375,0,0,0-2.5,2.221,2.376,2.376,0,0,0,2.5,2.222A2.689,2.689,0,0,0-1113.058,5.777Z" transform="translate(1118.059)" fill="#f6a1a1"/></g></svg>